<?xml version="1.0" encoding="utf-8"?>
<!-- Generator: Adobe Illustrator 16.0.3, SVG Export Plug-In . SVG Version: 6.00 Build 0)  -->
<!DOCTYPE svg PUBLIC "-//W3C//DTD SVG 1.1//EN" "http://www.w3.org/Graphics/SVG/1.1/DTD/svg11.dtd">
<svg version="1.1" xmlns="http://www.w3.org/2000/svg" xmlns:xlink="http://www.w3.org/1999/xlink" x="0px" y="0px"
	 width="392.035px" height="87.611px" viewBox="0 0 392.035 87.611" enable-background="new 0 0 392.035 87.611"
	 xml:space="preserve">
<g id="logo_x5F_text">
	<g>
		<path d="M128.898,43.344V10.329h-6.77V6.603h17.635v3.726h-6.771v33.015H128.898z"/>
		<path d="M160.349,26.812v16.532h-4.094V6.603h4.094v16.533h9.028V6.603h4.093v36.741h-4.093V26.812H160.349z"/>
		<path d="M195.421,6.603v36.741h-4.095V6.603H195.421z"/>
		<path d="M221.461,6.603c5.773,0,8.188,2.939,8.188,8.398v2.992c0,4.041-1.417,6.561-4.566,7.559
			c3.358,0.997,4.619,3.726,4.619,7.662v5.721c0,1.627,0.052,3.15,0.733,4.409h-4.146c-0.474-1.049-0.684-1.994-0.684-4.462V33.11
			c0-4.147-1.94-5.459-5.353-5.459h-2.887v15.693h-4.094V6.603H221.461z M220.411,23.924c3.255,0,5.195-1.05,5.195-5.039v-3.517
			c0-3.306-1.206-5.039-4.25-5.039h-3.989v13.595H220.411z"/>
		<path d="M256.219,6.603c5.721,0,8.346,3.464,8.346,9.133v18.527c0,5.617-2.625,9.081-8.346,9.081h-8.607V6.603H256.219z
			 M256.168,39.618c2.938,0,4.355-1.837,4.355-5.196V15.525c0-3.359-1.418-5.196-4.41-5.196h-4.408v29.289H256.168z"/>
		<path d="M316.914,22.874v3.674h-8.976v13.069h11.021v3.726h-15.117V6.603h15.117v3.726h-11.021v12.545H316.914z"/>
		<path d="M342.903,30.17l-7.769-23.567h4.252l5.72,18.055l5.774-18.055h3.883l-7.818,23.567v13.174h-4.042V30.17z"/>
		<path d="M384.434,22.874v3.674h-8.975v13.069h11.021v3.726h-15.117V6.603h15.117v3.726h-11.021v12.545H384.434z"/>
	</g>
</g>
<g id="logo_x5F_subtext">
	<g>
		<path d="M133.104,69.706v0.579h-5.397v9.005H127.1V60.012h7.079v0.578h-6.472v9.116H133.104z"/>
		<path d="M143.825,60.012c2.864,0,3.967,1.679,3.967,4.323v1.735c0,2.368-0.936,3.663-3.059,4.049
			c2.149,0.331,3.059,1.735,3.059,3.855v3.03c0,0.743,0.081,1.679,0.521,2.285h-0.66c-0.387-0.606-0.469-1.459-0.469-2.285v-3.03
			c0-2.835-1.708-3.58-4.214-3.58h-2.368v8.896h-0.605V60.012H143.825z M142.971,69.816c2.672,0,4.214-0.689,4.214-3.662v-1.763
			c0-2.341-0.907-3.801-3.388-3.801h-3.194v9.227H142.971z"/>
		<path d="M154.161,64.749c0-2.699,1.156-4.875,4.074-4.875c2.976,0,4.132,2.176,4.132,4.875v9.804c0,2.698-1.156,4.875-4.132,4.875
			c-2.918,0-4.074-2.177-4.074-4.875V64.749z M154.766,74.581c0,2.368,0.91,4.298,3.47,4.298c2.59,0,3.525-1.93,3.525-4.298v-9.86
			c0-2.367-0.936-4.295-3.525-4.295c-2.56,0-3.47,1.928-3.47,4.295V74.581z"/>
		<path d="M168.846,79.29h-0.577V60.012h0.854l6.773,18.039V60.012h0.578V79.29h-0.743l-6.886-18.397V79.29z"/>
		<path d="M186.012,79.29v-18.7h-4.185v-0.578h9.005v0.578h-4.213v18.7H186.012z"/>
		<path d="M195.329,69.376h4.9v0.55h-4.9V69.376z"/>
		<path d="M212.408,69.239v0.551h-5.672v8.922h6.748v0.579h-7.353V60.012h7.353v0.578h-6.748v8.649H212.408z"/>
		<path d="M219.935,79.29h-0.577V60.012h0.853l6.775,18.039V60.012h0.577V79.29h-0.742l-6.886-18.397V79.29z"/>
		<path d="M237.512,60.012c2.946,0,4.188,2.065,4.188,4.82v9.667c0,2.726-1.241,4.792-4.159,4.792h-4.049V60.012H237.512z
			 M237.512,78.711c2.59,0,3.581-1.79,3.581-4.185v-9.722c0-2.423-1.019-4.214-3.581-4.214h-3.414v18.122H237.512z"/>
		<path d="M261.565,69.706v0.579h-5.396v9.005h-0.605V60.012h7.078v0.578h-6.473v9.116H261.565z"/>
		<path d="M272.288,60.012c2.863,0,3.966,1.679,3.966,4.323v1.735c0,2.368-0.936,3.663-3.058,4.049
			c2.148,0.331,3.058,1.735,3.058,3.855v3.03c0,0.743,0.082,1.679,0.522,2.285h-0.66c-0.386-0.606-0.47-1.459-0.47-2.285v-3.03
			c0-2.835-1.707-3.58-4.213-3.58h-2.369v8.896h-0.604V60.012H272.288z M271.434,69.816c2.672,0,4.213-0.689,4.213-3.662v-1.763
			c0-2.341-0.908-3.801-3.388-3.801h-3.194v9.227H271.434z"/>
		<path d="M284.247,74.746l-1.129,4.544h-0.552l4.655-19.305h0.854l4.764,19.305h-0.604l-1.129-4.544H284.247z M284.358,74.196
			h6.636l-3.36-13.496L284.358,74.196z"/>
		<path d="M304.691,79.235h-0.688l-4.765-18.314V79.29h-0.552V60.012h0.938L304.36,78.3l4.737-18.288h0.937V79.29h-0.607V60.921
			L304.691,79.235z"/>
		<path d="M322.242,69.239v0.551h-5.675v8.922h6.748v0.579h-7.353V60.012h7.353v0.578h-6.748v8.649H322.242z"/>
		<path d="M333.46,79.29h-0.882l-3.473-19.278h0.608l3.361,18.453l3.33-18.342h0.747l3.139,18.231l3.249-18.342h0.549l-3.411,19.278
			h-0.802l-3.11-17.845L333.46,79.29z"/>
		<path d="M349.912,64.749c0-2.699,1.158-4.875,4.077-4.875c2.972,0,4.13,2.176,4.13,4.875v9.804c0,2.698-1.158,4.875-4.13,4.875
			c-2.919,0-4.077-2.177-4.077-4.875V64.749z M350.517,74.581c0,2.368,0.908,4.298,3.473,4.298c2.587,0,3.524-1.93,3.524-4.298
			v-9.86c0-2.367-0.938-4.295-3.524-4.295c-2.564,0-3.473,1.928-3.473,4.295V74.581z"/>
		<path d="M367.845,60.012c2.867,0,3.97,1.679,3.97,4.323v1.735c0,2.368-0.938,3.663-3.059,4.049
			c2.15,0.331,3.059,1.735,3.059,3.855v3.03c0,0.743,0.081,1.679,0.521,2.285h-0.663c-0.382-0.606-0.464-1.459-0.464-2.285v-3.03
			c0-2.835-1.708-3.58-4.215-3.58h-2.371v8.896h-0.605V60.012H367.845z M366.994,69.816c2.67,0,4.215-0.689,4.215-3.662v-1.763
			c0-2.341-0.911-3.801-3.391-3.801h-3.195v9.227H366.994z"/>
		<path d="M380.275,69.706l-1.457,2.203v7.381h-0.606V60.012h0.606v10.877l7.16-10.877h0.658l-5.974,9.115l6.471,10.163h-0.658
			L380.275,69.706z"/>
	</g>
</g>
<g id="logo_x5F_circle">
</g>
<g id="logo_x5F_symbol">
	<path fill="#35BDB1" d="M79.069,19.803L65.321,6.055L42.904,28.45L31.798,17.345c-3.711-3.711-8.195-5.485-12.957-5.127
		c-4.188,0.315-8.278,2.269-11.51,5.5C1.156,23.893-0.951,34.28,6.957,42.187l13.749,13.749l22.42-22.395l11.103,11.104
		c3.715,3.715,8.192,5.485,12.955,5.129c4.19-0.314,8.281-2.27,11.515-5.503C84.871,38.099,86.979,27.712,79.069,19.803z
		 M20.706,50.647L9.6,39.544c-6.495-6.498-4.37-14.539,0.35-19.258c4.72-4.721,12.76-6.845,19.257-0.348l11.105,11.104
		L20.706,50.647z M56.821,42.052L45.718,30.948l19.604-19.604l11.101,11.103c6.5,6.498,4.376,14.538-0.345,19.258
		C71.356,46.428,63.318,48.55,56.821,42.052z"/>
</g>
</svg>
