<?xml version="1.0" encoding="utf-8"?>
<!-- Generator: Adobe Illustrator 16.0.3, SVG Export Plug-In . SVG Version: 6.00 Build 0)  -->
<!DOCTYPE svg PUBLIC "-//W3C//DTD SVG 1.1//EN" "http://www.w3.org/Graphics/SVG/1.1/DTD/svg11.dtd">
<svg version="1.1" id="Layer_1" xmlns="http://www.w3.org/2000/svg" xmlns:xlink="http://www.w3.org/1999/xlink" x="0px" y="0px"
	 width="359.348px" height="161.87px" viewBox="0 0 359.348 161.87" enable-background="new 0 0 359.348 161.87"
	 xml:space="preserve">
<g>
	
		<text transform="matrix(1 0 0 1 208.9731 90.2617)" fill="#FFFFFF" font-family="'Code-Light'" font-size="14.6457" letter-spacing="4">DESIGN</text>
	
		<text transform="matrix(1 0 0 1 154.4819 105.0547)" fill="#FFFFFF" font-family="'Code-Bold'" font-size="37.1224" letter-spacing="4">UX</text>
	
		<text transform="matrix(0.9999 -0.0111 0.0111 0.9999 154.9209 70.5112)" fill="#FFFFFF" font-family="'Code-Bold'" font-size="30.4543">PEREZPRIEGO</text>
	
		<text transform="matrix(1 0 0 1 209.0444 105.3818)" fill="#FFFFFF" font-family="'Code-Light'" font-size="14.3978" letter-spacing="4">EnGINEER</text>
	<g>
		<g>
			<path fill="#FFFFFF" d="M95.546,59.951H81.513l-0.011,22.872H70.169c-3.792,0-6.983,1.381-9.231,3.994
				c-1.978,2.299-3.067,5.383-3.067,8.683c0,6.301,4.225,12.679,12.298,12.679h14.032l0.012-22.872h11.333
				c3.791,0,6.983-1.381,9.231-3.994c1.978-2.3,3.068-5.384,3.068-8.684C107.845,66.329,103.62,59.951,95.546,59.951z
				 M81.502,105.479H70.169c-6.633,0-9.653-5.187-9.653-10.006c0-4.819,3.021-10.006,9.653-10.006h11.333V105.479z M95.546,82.661
				H84.213V62.65h11.333c6.633,0,9.653,5.187,9.653,10.006S102.179,82.661,95.546,82.661z"/>
			<path fill="#FFFFFF" d="M82.857,29.743c-29.799,0-54.043,24.244-54.043,54.042c0,29.8,24.244,54.043,54.043,54.043
				S136.9,113.585,136.9,83.785C136.9,53.986,112.657,29.743,82.857,29.743z M82.857,134.166c-27.779,0-50.379-22.602-50.379-50.38
				s22.6-50.378,50.379-50.378s50.379,22.6,50.379,50.378S110.636,134.166,82.857,134.166z"/>
		</g>
	</g>
</g>
</svg>
