<?xml version="1.0" encoding="utf-8"?>
<!-- Generator: Adobe Illustrator 16.0.3, SVG Export Plug-In . SVG Version: 6.00 Build 0)  -->
<!DOCTYPE svg PUBLIC "-//W3C//DTD SVG 1.1//EN" "http://www.w3.org/Graphics/SVG/1.1/DTD/svg11.dtd">
<svg version="1.1" xmlns="http://www.w3.org/2000/svg" xmlns:xlink="http://www.w3.org/1999/xlink" x="0px" y="0px"
	 width="288.495px" height="60.177px" viewBox="0 0 288.495 60.177" enable-background="new 0 0 288.495 60.177"
	 xml:space="preserve">
<g id="logo_x5F_text">
	<text transform="matrix(1 0 0 1 101.3286 45.7593)" font-family="'BebasNeueRegular'" font-size="41.948" letter-spacing="5">YOUR LOgo</text>
</g>
<g id="logo_x5F_subtext">
</g>
<g id="logo_x5F_circle">
</g>
<g id="logo_x5F_symbol">
	<path fill="#35BDB1" d="M79.069,19.803L65.321,6.055L42.904,28.45L31.798,17.345c-3.711-3.711-8.195-5.485-12.957-5.127
		c-4.188,0.315-8.278,2.269-11.51,5.5C1.156,23.893-0.951,34.28,6.957,42.187l13.749,13.749l22.42-22.395l11.103,11.104
		c3.715,3.715,8.192,5.485,12.955,5.129c4.19-0.314,8.281-2.27,11.515-5.503C84.871,38.099,86.979,27.712,79.069,19.803z
		 M20.706,50.647L9.6,39.544c-6.495-6.498-4.37-14.539,0.35-19.258c4.72-4.721,12.76-6.845,19.257-0.348l11.105,11.104
		L20.706,50.647z M56.821,42.052L45.718,30.948l19.604-19.604l11.101,11.103c6.5,6.498,4.376,14.538-0.345,19.258
		C71.356,46.428,63.318,48.55,56.821,42.052z"/>
</g>
</svg>
